<?xml version="1.0" encoding="UTF-8" standalone="no"?>
<!-- Created with Inkscape (http://www.inkscape.org/) -->
<svg
   xmlns:dc="http://purl.org/dc/elements/1.1/"
   xmlns:cc="http://web.resource.org/cc/"
   xmlns:rdf="http://www.w3.org/1999/02/22-rdf-syntax-ns#"
   xmlns:svg="http://www.w3.org/2000/svg"
   xmlns="http://www.w3.org/2000/svg"
   xmlns:sodipodi="http://sodipodi.sourceforge.net/DTD/sodipodi-0.dtd"
   xmlns:inkscape="http://www.inkscape.org/namespaces/inkscape"
   width="632.56635"
   height="636.716"
   id="svg2"
   sodipodi:version="0.32"
   inkscape:version="0.44"
   sodipodi:docbase="C:\Dokumente und Einstellungen\Daniel.YASOKHUUL\Desktop\satan"
   sodipodi:docname="umgedrehtes pentagramm satan.svg"
   version="1.0">
  <defs
     id="defs4" />
  <sodipodi:namedview
     id="base"
     pagecolor="#ffffff"
     bordercolor="#666666"
     borderopacity="1.0"
     inkscape:pageopacity="0.0"
     inkscape:pageshadow="2"
     inkscape:zoom="0.70649766"
     inkscape:cx="218.67453"
     inkscape:cy="288.61126"
     inkscape:document-units="px"
     inkscape:current-layer="layer1"
     inkscape:window-width="1024"
     inkscape:window-height="721"
     inkscape:window-x="-4"
     inkscape:window-y="-4" />
  <metadata
     id="metadata7">
    <rdf:RDF>
      <cc:Work
         rdf:about="">
        <dc:format>image/svg+xml</dc:format>
        <dc:type
           rdf:resource="http://purl.org/dc/dcmitype/StillImage" />
      </cc:Work>
    </rdf:RDF>
  </metadata>
  <g
     inkscape:label="Ebene 1"
     inkscape:groupmode="layer"
     id="layer1"
     transform="translate(-52.24839,-27.95165)">
    <path
       style="fill:#ED1D26"
       d="M 319.79526,661.42965 C 208.57679,643.29005 114.03713,567.56486 73.441197,464.1028 C 55.572527,418.56301 52.071877,398.90183 52.255067,345.11219 C 52.402037,301.95775 53.353547,293.03347 60.646217,266.41145 C 80.772017,192.94177 119.99423,134.96079 179.73783,90.362014 C 271.37513,21.954503 387.7418,9.000425 494.05775,55.371568 C 562.14931,85.070653 624.57511,145.92648 655.68039,212.92952 C 694.32328,296.16918 694.53848,397.35023 656.2464,479.0634 C 641.57277,510.37614 623.2333,539.10762 619.42302,536.75272 C 617.79939,535.74928 617.18947,536.80058 618.06761,539.08897 C 620.28701,544.87264 587.74483,579.60618 560.96906,600.03248 C 522.97894,629.01384 484.58419,647.08353 436.91662,658.41528 C 407.79593,665.33795 352.48611,666.76147 319.79526,661.42965 z M 406.43178,655.45744 C 407.30341,654.92443 413.49235,653.63214 420.18499,652.58568 C 477.65562,643.59955 539.90924,610.8641 585.64398,565.58073 C 718.76815,433.77032 704.01576,209.41338 554.83291,97.000696 C 494.29169,51.381532 426.24026,30.469012 350.85362,34.31692 C 222.17577,40.884934 112.98052,123.66685 72.092657,245.64823 C 61.587057,276.98973 56.506787,309.60936 56.428727,346.22405 C 56.247357,431.29428 87.872127,508.3027 146.97132,566.70111 C 175.32367,594.71727 216.17258,623.9315 223.21517,621.22901 C 226.14156,620.10604 227.23705,620.63835 226.02745,622.59553 C 223.50602,626.67527 240.61122,633.94608 245.54991,630.8938 C 247.84302,629.4766 248.45896,629.88264 247.17281,631.96365 C 243.58306,637.77202 292.18218,651.29558 341.09005,658.09781 C 350.34602,659.38514 403.52273,657.23634 406.43178,655.45744 z M 367.01567,653.37964 C 367.05288,651.14877 369.76033,645.90113 373.03224,641.71822 C 382.85967,629.1546 380.93307,626.50765 361.96111,626.50765 L 344.80575,626.50765 L 346.59716,611.38184 C 347.63294,602.6365 347.11785,595.47065 345.37612,594.3942 C 343.71923,593.37019 343.13505,590.10183 344.0779,587.13118 C 345.53127,582.55204 343.28466,581.43525 329.31723,579.79366 C 291.40708,575.33806 239.09883,550.68916 207.1783,522.23883 C 176.93733,495.2855 148.28299,447.69702 137.16024,405.95445 C 129.51942,377.27919 128.01029,331.08084 133.80141,303.13103 C 144.24678,252.71807 165.12167,213.78386 201.14448,177.52792 C 225.52085,152.99386 225.584,152.88872 223.0863,141.02257 C 221.70859,134.47734 219.94849,126.04201 219.17497,122.2774 C 218.00959,116.60571 215.75822,115.43265 206.03833,115.43265 C 195.33417,115.43265 194.14178,116.26421 192.40677,124.93925 C 191.36105,130.16788 190.50545,137.47738 190.50545,141.18255 C 190.50545,148.73925 178.33822,155.957 170.60319,152.98881 C 163.18983,150.14401 166.12051,135.42976 174.33334,134.26062 C 182.03064,133.16488 187.23832,117.03289 181.68686,111.48143 C 179.84443,109.639 178.337,106.13978 178.337,103.70533 C 178.337,100.05358 179.31042,100.16002 183.90024,104.31375 C 187.33086,107.41841 194.67774,109.34842 203.06555,109.34842 C 217.84736,109.34842 223.83518,113.18224 224.20887,122.88582 C 224.34297,126.36792 225.14591,127.38508 226.02693,125.18898 C 226.89482,123.02573 226.76066,117.89216 225.72883,113.78105 C 224.02501,106.99255 222.33849,106.30631 207.35867,106.30631 C 198.28688,106.30631 190.01847,104.93736 188.9844,103.26419 C 187.81029,101.36445 193.99963,100.22208 205.46635,100.22208 C 221.76542,100.22208 224.39642,101.0889 228.88363,107.93727 C 232.85784,114.00267 233.5227,119.63338 231.99294,134.26935 C 230.15547,151.84929 230.34378,152.62181 235.3737,148.13871 C 243.68007,140.73536 276.03991,125.16412 297.10228,118.43552 C 377.59039,92.722694 469.05009,114.59162 530.67704,174.28558 C 645.01602,285.03821 619.29011,474.47577 479.2325,553.1074 C 445.09041,572.27554 386.75978,586.69439 359.52343,582.69846 C 350.13727,581.32138 348.45163,581.65157 352.49798,584.07459 C 355.64483,585.95899 357.82168,590.93242 357.82168,596.23769 C 357.82168,605.06383 358.09331,605.21286 374.18082,605.21286 C 400.7472,605.21286 403.90914,616.5486 384.44223,642.00068 C 374.07538,655.55491 366.90126,660.23937 367.01567,653.37964 z M 391.23835,616.62079 C 391.27753,612.14292 388.41417,611.29709 373.21589,611.29709 L 355.14684,611.29709 L 353.95354,599.88916 C 352.97185,590.50428 352.66955,591.31348 352.24883,604.45233 L 351.73745,620.42343 L 367.04348,620.42343 C 378.20265,620.42343 382.85048,621.72883 384.19847,625.24168 C 385.68713,629.12104 386.54859,629.26922 388.61957,626.00221 C 390.03428,623.77045 391.21273,619.54882 391.23835,616.62079 z M 363.1657,574.0312 C 362.40057,571.93975 350.96028,537.04115 337.74279,496.4787 L 313.71104,422.72888 L 230.81345,422.70746 C 185.21978,422.69572 147.91587,423.56914 147.91587,424.64845 C 147.91587,425.72776 152.6588,436.33713 158.45573,448.22483 C 191.5621,516.11591 250.25435,559.3019 331.96371,575.89267 C 346.60017,578.86457 364.54231,577.79414 363.1657,574.0312 z M 309.28811,520.32148 C 301.83603,517.27973 295.21913,513.23177 294.58387,511.32604 C 293.93754,509.38703 295.3249,508.58866 297.73416,509.51319 C 302.74382,511.43556 312.88017,488.8667 310.17421,481.81508 C 308.1711,476.59506 310.45969,476.30402 318.72541,480.72771 C 324.07013,483.58812 324.27109,484.47024 320.28471,487.57246 C 317.76785,489.5311 313.65777,496.17154 311.15122,502.32902 C 306.62428,513.44953 306.64968,513.54389 314.94613,516.43606 C 320.33995,518.31636 325.20262,518.28208 328.67425,516.33926 C 333.04543,513.89301 333.84858,514.37695 332.97193,518.92889 C 331.50965,526.52191 325.36397,526.88329 309.28811,520.32148 z M 265.63509,501.07695 C 260.51202,497.32748 260.95176,496.19171 272.27517,483.92622 C 279.74885,475.83076 283.71957,469.01341 282.62399,466.15833 C 281.13612,462.28103 281.9135,462.09689 287.3918,465.02879 C 290.99184,466.95545 293.9373,469.93341 293.9373,471.64645 C 293.9373,473.3595 292.70235,473.99785 291.19301,473.06499 C 288.38958,471.33238 275.55031,489.77872 272.70007,499.63401 C 271.34593,504.31616 270.3413,504.52135 265.63509,501.07695 z M 226.13395,463.93573 C 213.98047,449.39628 212.25343,445.37857 219.32315,448.09149 C 223.2375,449.59357 240.17997,438.42293 245.68391,430.71111 C 247.92418,427.57213 254.38983,430.78266 254.38983,435.03407 C 254.38983,436.60849 252.67864,437.95228 250.58719,438.02027 C 248.49574,438.08826 242.21234,442.05536 236.62407,446.83604 C 226.75092,455.28238 226.60432,455.74298 231.43976,463.12279 C 235.09912,468.70771 238.19027,470.26028 243.1213,468.99002 C 249.0849,467.45375 249.36481,467.8258 245.65154,472.35341 C 239.78419,479.50742 238.79292,479.07992 226.13395,463.93573 z M 430.33799,568.17325 C 494.11437,548.48752 542.72621,507.60688 572.59103,448.54404 L 586.43511,421.16502 L 505.13515,420.35393 C 460.4202,419.90783 423.39135,419.98675 422.84882,420.52928 C 421.54926,421.82881 373.03224,573.71488 373.03224,576.48366 C 373.03224,580.02502 408.6981,574.85282 430.33799,568.17325 z M 411.85167,514.48871 C 412.54485,509.7658 411.05172,500.97075 408.53364,494.94414 C 404.8971,486.24066 404.75515,483.67974 407.84357,482.4946 C 410.45747,481.49155 413.03822,486.44819 415.71777,497.61776 C 417.91004,506.75615 420.98486,515.02479 422.55072,515.99255 C 424.12666,516.96655 423.55502,518.9197 421.2703,520.36738 C 413.68007,525.17678 410.56805,523.23442 411.85167,514.48871 z M 449.89375,504.06151 C 451.78954,499.12118 439.61455,476.76453 435.13601,476.96221 C 433.60561,477.02978 431.58507,480.24596 430.64597,484.10932 L 428.93846,491.13362 L 425.26417,484.38031 C 421.89068,478.17988 422.57388,477.12502 433.61002,471.4948 C 440.22108,468.1221 446.48829,463.97409 447.53715,462.27702 C 450.55009,457.40197 454.66613,458.65124 458.36546,465.56353 C 461.40703,471.24672 461.09266,471.71882 455.45763,469.93034 C 445.14569,466.65745 442.50854,470.68886 447.94203,481.41939 C 450.64738,486.76223 454.8628,493.42035 457.30957,496.21523 C 461.27257,500.74198 461.01605,501.69404 454.96039,504.93493 C 449.25692,507.98735 448.44124,507.84672 449.89375,504.06151 z M 482.45915,479.7257 C 482.34203,474.73195 465.36822,456.14932 460.92391,456.14932 C 458.48851,456.14932 458.58592,454.80039 461.25352,451.58615 C 466.05023,445.80647 470.37986,445.72129 470.37986,451.4066 C 470.37986,459.28543 476.76556,459.96875 484.29458,452.89563 C 493.61516,444.13939 493.57245,441.53099 484.06937,439.14585 C 475.75591,437.05933 474.71399,434.77936 479.76542,429.72793 C 482.13915,427.3542 486.51207,430.16429 495.32826,439.72872 C 502.07208,447.04491 508.80017,452.28276 510.27958,451.36846 C 514.26703,448.90407 513.54033,454.36159 509.31891,458.58301 C 505.09329,462.80863 499.64103,463.52939 502.10901,459.53613 C 503.02593,458.05256 501.65936,455.08193 499.07216,452.93478 C 495.13524,449.6674 493.14731,450.25176 486.8804,456.51866 L 479.39261,464.00649 L 485.68884,470.76467 C 489.15174,474.4817 491.14995,478.87412 490.12926,480.52562 C 487.50529,484.77131 482.56538,484.25613 482.45915,479.7257 z M 367.2062,565.34652 C 365.60316,561.33899 364.20479,559.65935 364.09874,561.61394 C 363.84114,566.36152 367.38492,575.36888 368.91024,573.84353 C 369.57607,573.17771 368.80924,569.35405 367.2062,565.34652 z M 365.984,537.71598 C 365.0129,535.28919 364.29204,536.01002 364.14608,539.55393 C 364.01399,542.76081 364.73296,544.55757 365.74386,543.5467 C 366.75472,542.53584 366.86278,539.91202 365.984,537.71598 z M 368.38094,528.47787 C 365.57262,524.67015 364.10048,523.60818 365.10948,526.11792 C 366.11852,528.62766 367.86938,533.38367 369.00029,536.68686 C 370.15462,540.05847 371.58949,541.09354 372.27174,539.04681 C 372.94016,537.0416 371.1893,532.28559 368.38094,528.47787 z M 354.94046,527.48605 C 353.46643,522.55068 352.14275,520.79635 351.99892,523.58752 C 351.70703,529.25282 354.95409,539.12588 356.57584,537.50412 C 357.1504,536.92956 356.41449,532.42145 354.94046,527.48605 z M 384.23668,519.4633 C 383.26558,517.03651 382.54472,517.75734 382.39876,521.30125 C 382.26667,524.50813 382.98564,526.30489 383.99653,525.29403 C 385.0074,524.28316 385.11545,521.65934 384.23668,519.4633 z M 381.23953,487.67948 C 380.39771,486.83764 376.83774,487.94199 373.32848,490.13356 C 368.06867,493.41837 365.82736,493.41837 360.56755,490.13356 C 351.71479,484.60491 349.57791,488.17751 355.61986,498.40564 C 358.41583,503.13889 359.77261,507.94239 358.63489,509.08011 C 357.49717,510.21783 359.58668,511.93851 363.27822,512.90386 C 366.96977,513.86925 370.04714,516.89509 370.1168,519.62797 C 370.18647,522.36085 373.06193,516.63483 376.50679,506.90345 C 379.95162,497.17209 382.08134,488.5213 381.23953,487.67948 z M 392.58326,498.7389 C 393.99709,493.45329 393.75761,492.52542 391.79816,495.69679 C 390.2475,498.20653 388.06335,503.68234 386.94446,507.86524 C 385.53064,513.15085 385.77012,514.07873 387.72957,510.90736 C 389.28023,508.39761 391.46437,502.92181 392.58326,498.7389 z M 345.65322,486.57045 C 345.65322,484.89729 344.20347,483.52834 342.43156,483.52834 C 340.65966,483.52834 340.05598,484.89729 341.09005,486.57045 C 342.12413,488.24361 343.57388,489.61256 344.31171,489.61256 C 345.04955,489.61256 345.65322,488.24361 345.65322,486.57045 z M 397.36915,486.57045 C 397.36915,484.89729 395.9194,483.52834 394.14749,483.52834 C 392.37558,483.52834 391.7719,484.89729 392.80598,486.57045 C 393.84005,488.24361 395.2898,489.61256 396.02764,489.61256 C 396.76547,489.61256 397.36915,488.24361 397.36915,486.57045 z M 385.09367,474.60199 C 386.8257,471.36567 388.24281,465.35488 388.24281,461.24471 C 388.24281,457.13451 390.95065,447.8041 394.26023,440.51042 C 401.72013,424.0703 401.89891,419.89752 395.08756,421.20143 C 392.15953,421.76197 388.22379,422.32531 386.34149,422.45332 C 384.45918,422.58134 381.82331,427.13517 380.48399,432.57294 L 378.04884,442.45981 L 376.86886,432.57294 C 375.76269,423.30454 374.94442,422.68608 363.78845,422.68608 C 352.35168,422.68608 352.00068,422.98238 354.77956,430.29136 C 356.36989,434.47426 356.48442,437.89664 355.03407,437.89664 C 353.58368,437.89664 351.53807,434.47426 350.48824,430.29136 C 349.09382,424.73564 346.54548,422.68608 341.0321,422.68608 C 331.84918,422.68608 331.55306,426.89088 339.50219,444.4092 C 342.81177,451.70285 345.54967,461.1612 345.58642,465.42776 C 345.6838,476.73518 351.12985,480.48622 367.44942,480.48622 C 378.66681,480.48622 382.65661,479.15567 385.09367,474.60199 z M 350.55051,467.55724 C 350.00272,465.46579 347.86657,458.51855 345.80353,452.11892 C 341.6648,439.28032 343.81271,432.65964 348.29332,444.44452 C 349.83899,448.50993 353.29967,453.65874 355.98369,455.8863 C 362.18802,461.03541 362.33578,471.35989 356.20516,471.35989 C 353.64288,471.35989 351.0983,469.6487 350.55051,467.55724 z M 373.03224,466.1106 C 373.03224,462.94464 375.04214,457.69699 377.49867,454.44917 C 379.95518,451.20135 382.0086,446.14837 382.06184,443.22034 C 382.11505,440.2923 383.68718,437.89664 385.5555,437.89664 C 387.67436,437.89664 388.15979,440.47191 386.84569,444.7414 C 385.68701,448.50601 383.78097,455.59067 382.61006,460.48503 C 380.18395,470.62613 373.03224,474.82671 373.03224,466.1106 z M 408.04045,444.51181 C 405.60655,442.07787 403.93813,444.95732 402.78259,453.58625 C 402.19522,457.97221 400.02881,463.592 397.96835,466.0747 C 395.82832,468.65332 395.16544,473.03661 396.42232,476.298 C 398.09956,480.65016 399.92556,477.73448 404.10402,464.03201 C 407.11878,454.14563 408.89018,445.36153 408.04045,444.51181 z M 328.9216,440.93875 C 329.95568,439.26559 329.352,437.89664 327.58009,437.89664 C 325.80818,437.89664 324.35843,439.26559 324.35843,440.93875 C 324.35843,442.61192 324.96211,443.98087 325.69994,443.98087 C 326.43778,443.98087 327.88753,442.61192 328.9216,440.93875 z M 324.35843,425.72819 C 324.35843,424.05503 322.98948,422.68608 321.31632,422.68608 C 319.64316,422.68608 318.27421,424.05503 318.27421,425.72819 C 318.27421,427.40135 319.64316,428.7703 321.31632,428.7703 C 322.98948,428.7703 324.35843,427.40135 324.35843,425.72819 z M 303.53943,416.625 C 311.32876,416.60267 311.50541,416.22688 308.4327,406.2151 C 306.35454,399.44381 303.80637,396.38038 301.11215,397.41424 C 298.70116,398.33941 296.97941,396.99135 296.97941,394.17846 C 296.97941,390.37202 294.00338,391.24416 282.8449,398.32067 C 275.07091,403.25081 267.57201,406.58098 266.1807,405.72109 C 264.78935,404.86121 257.11815,406.09095 249.13355,408.45391 C 234.4764,412.79148 203.24795,413.13162 185.1245,409.15104 L 175.28515,406.98996 L 192.78217,394.00826 C 210.35868,380.9676 223.79031,367.92804 219.64662,367.92804 C 217.64968,367.92804 159.9192,410.58571 152.47904,417.55887 C 150.58481,419.33418 176.98606,419.7003 222.44764,418.52909 C 262.60354,417.49459 299.09484,416.63775 303.53943,416.625 z M 212.67884,367.29777 C 246.49542,342.13144 275.32501,320.48093 276.74455,319.18548 C 278.1641,317.89005 274.8492,303.17359 269.37817,286.48221 C 259.83567,257.36946 259.08475,256.15168 250.92894,256.56188 C 246.25291,256.79703 240.85732,258.55917 238.93875,260.47774 C 234.87522,264.54128 238.10677,271.60233 242.72403,268.7487 C 244.52614,267.63495 245.40276,269.11655 244.7954,272.24963 C 243.63931,278.21348 236.13715,282.23159 236.13715,276.88696 C 236.13715,275.05719 231.29821,266.67571 225.38395,258.26144 C 219.46972,249.84717 215.38069,241.74937 216.29725,240.26634 C 217.21381,238.78331 225.8121,240.76296 235.40452,244.6656 C 244.99694,248.56821 253.72026,251.2205 254.78969,250.55957 C 256.5006,249.50216 239.29091,192.2395 230.37031,169.30774 C 226.20493,158.60002 221.91734,160.57386 200.93625,182.85817 C 170.76327,214.90534 152.4485,248.4558 141.50611,291.72712 C 136.0502,313.30237 135.29585,323.10387 136.5979,355.50317 C 138.10277,392.94957 143.14769,418.02769 148.50927,414.71407 C 149.98594,413.80143 178.86222,392.46411 212.67884,367.29777 z M 214.84236,330.93217 L 207.23708,327.78523 L 214.08183,325.1388 C 220.50635,322.65489 223.31276,313.52812 218.98334,309.19868 C 217.91456,308.12989 213.01819,310.63963 208.10253,314.77587 C 197.98841,323.28637 188.961,324.50288 186.35309,317.70677 C 183.44903,310.1389 189.71618,297.95944 196.51439,297.95944 C 204.4627,297.95944 204.29204,300.23546 195.82915,307.09682 C 192.06454,310.149 190.02538,313.69103 191.29771,314.96795 C 192.57005,316.24488 197.67787,313.39335 202.64844,308.63123 C 210.57741,301.0348 212.61812,300.3976 219.28658,303.43594 C 225.92247,306.45944 226.81116,308.64869 226.28746,320.68192 C 225.95751,328.2625 224.9586,334.37803 224.06763,334.27196 C 223.17662,334.16591 219.02526,332.66301 214.84236,330.93217 z M 173.77383,307.08578 C 172.73976,305.41261 173.34343,304.04366 175.11534,304.04366 C 176.88725,304.04366 178.337,305.41261 178.337,307.08578 C 178.337,308.75894 177.73332,310.12789 176.99549,310.12789 C 176.25766,310.12789 174.80791,308.75894 173.77383,307.08578 z M 348.69534,409.17611 C 348.69534,405.09195 350.24821,400.79062 352.14616,399.61764 C 354.53662,398.14024 355.16591,400.42194 354.19408,407.04338 C 352.80836,416.48479 352.95004,416.60185 365.76256,416.60185 L 378.73395,416.60185 L 377.52882,405.19392 L 376.32372,393.786 L 379.77767,405.19392 C 382.66074,414.71632 384.59273,416.60185 391.46663,416.60185 C 396.56986,416.60185 400.41199,414.57726 401.56948,411.27815 C 402.59677,408.35012 406.84621,401.32828 411.01263,395.67406 C 415.17908,390.01986 420.24791,377.35707 422.27672,367.53451 C 426.09396,349.05322 428.56218,346.15898 433.29446,354.61508 C 435.56872,358.67895 436.67291,357.79342 439.52185,349.62091 C 442.4752,341.14902 442.20253,339.0931 437.66914,335.65158 C 434.74552,333.43212 431.62188,331.57266 430.72777,331.51942 C 426.85112,331.28871 418.66394,312.95681 418.66394,304.50731 C 418.66394,298.4024 416.36751,293.65384 411.90281,290.52664 C 402.59939,284.01028 400.41126,284.55668 400.41126,293.39627 C 400.41126,297.57917 399.04231,301.00155 397.36915,301.00155 C 393.59334,301.00155 393.52057,297.43458 397.10403,288.00938 C 399.49458,281.72173 398.60348,279.95068 390.70032,275.28216 L 381.51962,269.85898 L 383.77762,277.06447 C 385.01951,281.02746 386.6787,285.98112 387.4647,288.07257 C 390.13181,295.16961 385.41784,291.9188 381.10452,283.68654 L 376.81404,275.49787 L 374.54229,285.84118 C 373.04535,292.65655 373.43803,296.57363 375.69348,297.32546 C 382.61395,299.6323 378.81998,303.41264 368.3587,304.63392 C 357.95766,305.84818 357.66306,305.60694 359.47461,297.35895 C 360.83528,291.16381 360.03259,288.32318 356.54289,286.98407 C 353.89991,285.96986 351.73745,281.86413 351.73745,277.86023 C 351.73745,268.98812 346.97666,268.23312 344.74892,276.75195 C 343.8613,280.14631 341.99046,282.7221 340.59148,282.47593 C 334.88569,281.47194 334.23301,283.22554 336.52688,293.39627 C 337.84765,299.25234 337.81224,304.04366 336.44821,304.04366 C 335.08422,304.04366 333.06319,299.92318 331.95705,294.88702 L 329.94591,285.73039 L 321.48008,291.75861 C 315.30991,296.15215 312.55512,301.20969 311.32118,310.40953 C 310.19603,318.79809 306.53627,326.22529 300.41083,332.55115 C 290.20511,343.09086 289.67859,338.77927 305.47388,374.01227 C 308.84931,381.5415 315.84815,391.7225 321.02683,396.63673 C 326.20554,401.55096 330.44266,408.05348 330.44266,411.08677 C 330.44266,415.18657 332.78469,416.60185 339.569,416.60185 C 347.21684,416.60185 348.69534,415.39885 348.69534,409.17611 z M 385.20069,396.82811 C 382.09905,393.09085 382.30691,392.26494 386.34927,392.26494 C 389.06387,392.26494 391.28492,394.31837 391.28492,396.82811 C 391.28492,399.33786 390.76807,401.39128 390.13634,401.39128 C 389.50465,401.39128 387.2836,399.33786 385.20069,396.82811 z M 335.00583,392.26494 C 336.0399,390.59178 334.09922,389.22283 330.69321,389.22283 C 326.47623,389.22283 322.62467,385.34049 318.62128,377.05438 C 315.38773,370.36173 314.02979,364.88593 315.60363,364.88593 C 317.17746,364.88593 319.29718,367.05413 320.31409,369.70418 C 321.72083,373.37004 322.72792,373.60836 324.52505,370.70056 C 326.00005,368.31396 324.12741,364.70799 319.53854,361.09837 C 315.49682,357.91915 312.2448,352.33721 312.31179,348.69404 C 312.42331,342.62916 312.81665,342.77618 316.97209,350.43589 C 319.4683,355.03708 324.09286,358.8017 327.2489,358.8017 C 337.17355,358.8017 342.68494,362.28872 347.5111,371.6215 C 352.13064,380.55469 350.69635,388.25644 345.86809,380.44414 C 344.49503,378.22252 342.60636,377.64303 341.67104,379.15642 C 340.73571,380.66981 341.2281,383.89612 342.76525,386.32598 C 347.05436,393.10603 346.22703,395.30706 339.38945,395.30706 C 335.94438,395.30706 333.97175,393.93811 335.00583,392.26494 z M 338.60498,370.39976 C 337.63388,367.97297 336.91302,368.6938 336.76706,372.23771 C 336.63497,375.44458 337.35394,377.24135 338.36484,376.23048 C 339.3757,375.21962 339.48376,372.5958 338.60498,370.39976 z M 385.20069,388.31795 C 381.01779,386.19642 377.55924,382.452 377.51501,379.99698 C 377.47078,377.54197 376.46271,373.98303 375.27486,372.08825 C 373.2252,368.81874 381.42844,356.11886 396.46375,339.28454 C 398.47553,337.03206 399.43562,334.50319 398.59728,333.66487 C 396.24049,331.30809 400.72609,316.21212 403.78317,316.21212 C 407.96367,316.21212 406.99479,330.76908 402.20392,339.93956 C 399.84354,344.45768 393.68326,352.17503 388.51441,357.08926 C 375.77288,369.20311 376.65397,372.4579 390.18839,363.27318 C 396.27794,359.14071 402.47211,355.75959 403.95319,355.75959 C 405.43428,355.75959 408.14431,351.99497 409.97551,347.39378 C 411.92833,342.48691 413.90254,340.64171 414.75035,342.93097 C 417.13996,349.38359 413.34003,355.38577 402.795,361.81503 C 397.30103,365.16467 394.67682,367.91043 396.96342,367.91666 C 399.62238,367.92393 400.547,370.12253 399.52871,374.01646 C 398.58821,377.61291 399.17403,379.34007 400.96,378.2363 C 402.62288,377.20858 403.35259,373.95544 402.58159,371.00708 C 401.5435,367.03749 402.99164,365.64645 408.16232,365.64645 C 414.53238,365.64645 414.84733,366.3469 411.75302,373.632 C 407.37819,383.93177 400.3673,392.27705 396.13712,392.2201 C 394.30501,392.19543 389.3836,390.43946 385.20069,388.31795 z M 395.08756,383.0996 C 391.32295,381.55573 388.24281,378.87949 388.24281,377.1524 C 388.24281,375.42533 386.87386,374.01227 385.20069,374.01227 C 383.52753,374.01227 382.15858,376.45898 382.15858,379.4494 C 382.15858,383.45094 384.76911,385.02122 392.04545,385.39661 C 400.8154,385.84904 401.15907,385.58954 395.08756,383.0996 z M 350.65169,365.92916 C 348.13461,361.17248 341.18892,353.45768 335.2168,348.78515 C 324.28144,340.22939 320.64057,327.99528 327.72645,323.61598 C 330.02084,322.19796 330.40183,323.71677 328.9216,328.38057 C 327.44137,333.04437 327.82236,334.56318 330.11676,333.14516 C 331.96916,332.00032 333.48477,332.73347 333.48477,334.77442 C 333.48477,336.81537 337.27804,342.02974 341.91422,346.36189 C 351.31545,355.14654 359.81569,369.99017 357.03654,372.76932 C 356.04195,373.76391 353.16876,370.68584 350.65169,365.92916 z M 364.38887,350.43589 C 364.85903,348.21478 363.30764,343.33432 357.5742,328.99797 C 352.68589,316.77485 354.58408,314.33315 360.90939,324.70776 L 367.01649,334.72447 L 374.49139,326.22882 C 378.60259,321.55623 382.00958,319.44436 382.06245,321.53581 C 382.11532,323.62727 380.94073,325.33846 379.45226,325.33846 C 377.96375,325.33846 374.92699,331.49873 372.70388,339.02796 C 370.48076,346.55719 367.59176,352.71747 366.28386,352.71747 C 364.976,352.71747 364.12323,351.69076 364.38887,350.43589 z M 347.59522,293.39627 C 348.55832,290.88652 350.52581,288.8331 351.96743,288.8331 C 353.40909,288.8331 353.80064,290.88652 352.83757,293.39627 C 351.87447,295.90601 349.90698,297.95944 348.46535,297.95944 C 347.0237,297.95944 346.63214,295.90601 347.59522,293.39627 z M 420.64046,403.55824 C 419.81757,401.52985 419.0362,402.34669 418.90411,405.37347 C 418.77202,408.40025 417.31065,410.04032 415.65666,409.0181 C 413.88962,407.92599 413.44924,409.24386 414.58888,412.21366 C 416.38667,416.8987 416.73311,416.90186 419.3325,412.25704 C 420.87479,409.50113 421.46338,405.58666 420.64046,403.55824 z M 537.30635,413.93799 L 581.41699,412.03868 L 572.1704,405.95445 C 567.08477,402.60813 538.60679,382.26022 508.88596,360.73688 C 479.16512,339.21353 454.40594,322.10165 453.86554,322.71047 C 453.32517,323.31928 451.97547,326.77388 450.86626,330.38736 C 449.15044,335.97691 450.56944,337.51351 460.3752,340.68452 C 478.40024,346.51348 497.53206,358.70603 518.57052,377.77195 C 535.35785,392.98529 543.54101,397.20464 553.27744,395.6673 C 554.53232,395.46917 555.55903,396.56984 555.55903,398.11325 C 555.55903,406.73357 479.79012,413.62761 473.13821,405.61255 C 471.37646,403.48976 468.26009,402.39567 466.21296,403.18123 C 464.16586,403.96677 455.87814,401.09346 447.79582,396.79605 C 439.71351,392.49864 432.79358,389.37889 432.41818,389.86323 C 431.05997,391.6157 424.74816,411.48955 424.74816,414.01368 C 424.74816,416.87689 469.75501,416.84662 537.30635,413.93799 z M 593.94341,386.97848 C 604.56376,332.10661 593.63509,271.7927 564.24308,223.06581 C 552.81915,204.12686 526.25122,173.56393 513.02496,164.146 L 504.33538,157.95847 L 494.8564,189.17201 C 489.64298,206.33945 478.61215,241.59778 470.34345,267.52386 C 456.16325,311.98507 455.60779,314.94076 460.56305,319.56735 C 471.68459,329.95127 586.83612,410.67569 588.35718,409.15463 C 589.23975,408.27206 591.75354,398.2928 593.94341,386.97848 z M 507.72277,330.37656 C 503.59895,323.81563 503.52806,301.65101 507.63191,301.96465 C 514.35637,302.47859 535.65609,297.26866 539.58793,294.14819 C 542.42318,291.898 543.39058,293.08734 543.39058,298.82321 C 543.39058,304.93087 542.1782,306.19912 537.50731,304.97768 C 530.29656,303.092 509.92733,309.4644 509.92733,313.60591 C 509.92733,319.42206 516.34996,328.53051 519.20629,326.76518 C 520.79552,325.783 522.09578,326.26946 522.09578,327.84622 C 522.09578,332.25716 510.21904,334.34804 507.72277,330.37656 z M 485.58693,266.8817 C 478.36818,254.03768 478.07845,250.97969 484.06937,250.86494 C 489.82039,250.75479 506.88522,238.84409 506.88522,234.94021 C 506.88522,227.51885 511.52219,231.0818 519.88721,244.93066 C 528.20079,258.69434 528.4765,264.49619 520.81703,264.49619 C 518.31803,264.49619 517.35143,261.90069 518.19908,257.46642 C 519.99295,248.08253 511.81183,240.89244 505.39766,246.21571 C 499.97837,250.71332 502.18674,255.81452 508.50371,253.39047 C 516.2932,250.40135 513.3129,257.27887 505.22103,260.96576 C 495.14135,265.55838 493.20322,265.42224 497.36,260.41365 C 501.98669,254.83882 498.23324,251.8598 491.27468,255.58393 C 485.92594,258.44646 485.88633,259.07764 490.60359,266.27708 C 493.55431,270.78044 497.41351,273.23865 499.98412,272.25221 C 502.61151,271.244 503.84679,272.09211 503.08468,274.38099 C 500.31048,282.71294 492.63596,279.42375 485.58693,266.8817 z M 223.9687,401.02684 C 223.9687,403.8184 225.53603,403.81232 230.81345,401.00025 C 237.23548,397.57833 237.37639,397.70065 233.09504,402.98097 C 228.65842,408.45282 228.82717,408.45458 239.17926,403.04464 C 259.85204,392.24122 260.47193,392.03782 260.52063,396.04182 C 260.55495,398.86177 261.26361,398.7709 263.21092,395.69681 C 264.66496,393.40142 267.62111,392.1122 269.78018,392.8319 C 273.93623,394.21725 296.97941,374.75828 296.97941,369.86331 C 296.97941,368.28025 294.58125,369.15538 291.65015,371.80798 C 283.95369,378.77317 273.58359,382.13331 252.86877,384.37395 C 242.8298,385.45983 230.85148,387.10382 226.25028,388.02728 C 221.43465,388.99376 217.88447,388.37119 217.88447,386.56028 C 217.88447,383.14286 226.81383,381.33539 257.60705,378.51964 C 271.89038,377.21357 280.03995,374.71475 286.30263,369.72106 C 294.56951,363.12929 294.83174,362.22113 291.08216,353.16889 C 288.9002,347.90111 286.88714,343.59113 286.6087,343.59113 C 286.33028,343.59113 274.95302,348.22321 261.32594,353.88461 C 234.58154,364.99565 223.67364,371.79739 211.80025,384.76696 C 207.61734,389.33603 200.16842,395.56917 195.2471,398.6184 L 186.29928,404.16241 L 196.76816,403.46479 C 202.52606,403.08112 209.1809,401.54856 211.55669,400.05914 C 214.90901,397.9575 215.39061,398.61678 213.70735,403.00327 C 211.59694,408.50295 211.70612,408.50368 217.75357,403.03083 C 221.43653,399.69777 223.9687,398.88133 223.9687,401.02684 z M 487.11148,398.34917 C 484.44364,394.0325 489.67887,394.57223 494.48861,399.1097 C 497.7137,402.15224 498.79937,402.14843 499.92003,399.09075 C 500.69038,396.98886 502.6509,396.09128 504.27673,397.09612 C 508.93737,399.97655 522.09578,400.80324 522.09578,398.21565 C 522.09578,396.9292 525.14736,396.67467 528.87708,397.65 C 533.09816,398.75383 527.19056,391.79676 513.22967,379.2228 C 497.57897,365.12692 484.26775,356.28937 469.18246,349.97915 L 447.56401,340.93604 L 444.11444,350.6294 C 439.34614,364.02829 443.46726,367.4605 469.08596,371.42659 C 480.67316,373.22043 493.91821,376.62462 498.51941,378.99147 C 507.73248,383.73069 510.02051,388.05947 501.56152,384.74688 C 498.63349,383.60028 485.46999,380.75201 472.30932,378.41743 C 459.14865,376.08288 446.45276,372.57262 444.09625,370.6169 C 441.73974,368.66116 439.0353,367.83741 438.0864,368.78634 C 435.46495,371.40776 440.02608,383.45605 442.95472,381.64605 C 444.36158,380.77656 448.32652,383.83683 451.76566,388.44664 C 455.2048,393.05644 458.06204,395.26136 458.11503,393.34642 C 458.18716,390.74066 461.22204,390.75365 470.17796,393.39801 C 476.75957,395.34134 483.14801,397.9348 484.37449,399.16129 C 487.61015,402.39695 489.30275,401.89472 487.11148,398.34917 z M 431.11768,360.91226 C 428.70921,358.50379 427.79028,359.29315 427.79028,363.77047 C 427.79028,371.81306 432.04452,376.08203 433.39926,369.39887 C 433.97447,366.56131 432.94775,362.74233 431.11768,360.91226 z M 236.51453,360.52889 C 243.83619,356.45933 257.69813,350.2007 267.31881,346.6208 C 279.13645,342.2234 284.79584,338.45574 284.76439,335.00675 C 284.64185,321.58014 279.83476,322.79373 251.98525,343.28212 C 236.53141,354.65125 222.993,364.84756 221.89994,365.94066 C 218.0277,369.81287 223.37126,367.83416 236.51453,360.52889 z M 292.55852,331.65291 C 291.60272,330.10639 293.23311,328.21176 296.18165,327.44262 C 300.26128,326.37846 299.90666,325.9599 294.69783,325.69134 C 285.99243,325.24254 285.95908,320.92584 294.6142,314.86355 C 298.33279,312.25895 299.91393,310.12789 298.12778,310.12789 C 291.90794,310.12789 285.00453,320.85834 286.80208,327.73223 C 287.77042,331.43512 289.85278,334.46479 291.42953,334.46479 C 293.00629,334.46479 293.51436,333.19946 292.55852,331.65291 z M 449.08507,321.34739 C 449.08507,319.15229 445.32045,314.6154 440.71926,311.2654 C 426.78492,301.12019 424.64181,300.22682 426.62284,305.38925 C 427.61557,307.97629 429.58464,309.37798 430.99852,308.50416 C 434.37174,306.4194 440.39059,317.73877 437.57012,320.86302 C 436.37412,322.18786 437.10675,322.28706 439.1982,321.08348 C 441.28965,319.8799 443.00084,320.34489 443.00084,322.1168 C 443.00084,323.88871 444.36979,325.33846 446.04296,325.33846 C 447.71612,325.33846 449.08507,323.54248 449.08507,321.34739 z M 296.58011,304.50591 C 305.4492,297.14932 306.55316,294.75329 304.78426,286.69957 C 303.66011,281.58131 296.99505,269.35816 289.973,259.53697 C 273.52904,236.53811 250.21124,206.81849 249.31425,207.71549 C 247.93124,209.09849 282.64975,313.16796 284.46754,313.08817 C 285.493,313.04315 290.94365,309.18115 296.58011,304.50591 z M 469.76365,255.36985 C 478.22766,227.76268 486.13554,202.43709 487.33666,199.09076 C 493.05644,183.15572 446.31796,243.24213 435.85203,265.27875 C 422.88085,292.59035 422.91283,293.30872 437.55245,303.48562 C 446.30306,309.56869 451.22723,311.40704 452.49032,309.06236 C 453.52665,307.13865 461.29964,282.97703 469.76365,255.36985 z M 325.89996,282.71571 C 328.10169,279.15325 310.36927,255.86995 292.6409,239.04539 C 285.82468,232.5767 274.42975,221.68228 267.31881,214.83561 C 250.30403,198.45319 250.92514,202.15459 268.86171,224.03025 C 292.32513,252.64649 300.05459,263.79751 306.45261,278.26133 C 311.69299,290.10802 313.26293,291.51506 318.25817,288.84168 C 321.42693,287.14579 324.86576,284.38912 325.89996,282.71571 z M 441.57878,243.97151 C 447.48519,235.07576 457.40841,222.02291 463.63039,214.96515 C 469.85233,207.90741 472.54737,204.01168 469.61933,206.30799 C 460.74652,213.26655 463.66281,205.39852 473.42197,196.04865 C 478.44146,191.23968 482.49267,185.84999 482.42468,184.07157 C 482.35669,182.29316 478.24984,185.57769 473.29834,191.37058 C 468.03987,197.52258 464.25353,200.05301 464.19442,197.4548 C 464.12567,194.43329 462.17419,195.31005 458.1102,200.18829 C 450.70503,209.0772 450.4542,213.13462 457.45088,210.8541 C 460.37891,209.89975 455.24535,216.46965 446.04296,225.45396 C 409.00505,261.61397 401.10979,275.89149 412.88088,285.42313 L 419.9283,291.1298 L 425.38406,275.63769 C 428.38471,267.117 435.67233,252.86723 441.57878,243.97151 z M 379.11647,269.58397 C 379.11647,267.59066 376.37857,264.24987 373.03224,262.16006 C 363.91837,256.46836 354.36523,263.1698 356.82989,273.52591 C 357.83804,277.76197 359.25418,282.27932 359.97689,283.56446 C 361.77594,286.76355 379.11647,274.09716 379.11647,269.58397 z M 340.22688,263.64127 C 339.27857,260.01489 337.94402,258.72372 337.26125,260.77201 C 335.16819,267.05126 330.44543,264.90454 330.39608,257.65144 C 330.37047,253.88682 329.02248,248.75326 327.40054,246.24351 C 324.85916,242.311 324.44516,242.39132 324.40501,246.8245 C 324.37939,249.65378 322.89791,252.87131 321.11286,253.97456 C 319.32778,255.07778 318.24269,254.13187 318.70156,251.87249 C 320.03535,245.30484 315.41328,231.03295 311.95248,231.03295 C 310.21245,231.03295 309.57638,232.30732 310.53899,233.86485 C 311.50164,235.42241 310.89793,237.55664 309.19748,238.60757 C 307.49703,239.6585 306.10575,237.8673 306.10575,234.62708 C 306.10575,231.3869 304.05233,227.03163 301.54258,224.94872 C 297.76513,221.8137 296.95891,222.14243 296.86035,226.85783 C 296.78615,230.4067 295.01022,228.56269 292.14933,221.96627 C 288.50451,213.56231 286.97007,212.3074 284.70972,215.88204 C 282.20463,219.84372 281.8508,219.83654 281.76885,215.82238 C 281.71762,213.31264 280.32771,209.20579 278.68016,206.69604 C 276.05667,202.69965 275.32848,202.68684 272.81719,206.59298 C 270.51254,210.17762 269.31946,209.39531 266.73865,202.60726 C 264.9724,197.96171 262.08917,195.05047 260.3308,196.13717 C 258.5344,197.24742 272.39972,213.20957 291.9832,232.5763 C 311.15022,251.53119 327.76861,269.98979 328.91299,273.59543 C 330.85146,279.70302 331.36813,279.8122 336.4724,275.1929 C 339.97031,272.02731 341.32773,267.85091 340.22688,263.64127 z M 404.21515,271.03811 C 405.02438,267.94352 404.77967,260.07205 403.67134,253.54595 C 401.76774,242.33747 401.45318,242.04835 397.99159,248.32511 C 393.98121,255.59695 393.30312,264.37238 396.17357,271.85266 C 398.6534,278.31502 402.41172,277.9343 404.21515,271.03811 z M 359.34273,256.19551 C 359.34273,254.13987 333.48155,233.86266 301.87341,211.13506 C 265.57699,185.03635 247.49734,173.52438 252.80002,179.88827 C 257.41777,185.43015 265.82483,192.39279 271.48237,195.3608 C 277.13994,198.3288 281.76885,202.09342 281.76885,203.72661 C 281.76885,205.3598 283.23557,206.69604 285.02826,206.69604 C 286.82092,206.69604 290.01732,208.40723 292.13135,210.49868 C 294.24534,212.59014 299.92278,217.03923 304.74781,220.38555 C 309.57285,223.73188 321.09266,234.31852 330.34744,243.91146 C 341.32487,255.29 349.28931,261.10627 353.25851,260.64308 C 356.60483,260.25254 359.34273,258.25113 359.34273,256.19551 z M 397.47307,244.348 C 417.03826,224.21989 484.89129,172.44163 488.65487,174.76766 C 490.08454,175.65124 491.97308,175.21102 492.85168,173.78944 C 501.01951,160.57359 445.68359,197.14496 381.45667,247.41007 C 376.26799,251.47084 373.14389,256.13148 374.32718,258.04609 C 377.76982,263.61638 380.06232,262.25963 397.47307,244.348 z M 236.13715,252.503 C 236.13715,251.12373 233.48105,249.30066 230.23469,248.45172 C 225.1769,247.12907 224.8287,247.70315 227.80146,252.4633 C 231.11636,257.77127 236.13715,257.79518 236.13715,252.503 z M 441.47979,224.19817 C 448.17244,218.00887 451.85625,212.90786 449.66605,212.86259 C 447.47585,212.81732 446.55345,211.06908 447.61625,208.97763 C 448.67904,206.88618 446.70641,208.40678 443.23262,212.35675 C 439.7588,216.30675 436.91662,221.44031 436.91662,223.76467 C 436.91662,226.08906 435.59062,227.99084 433.96997,227.99084 C 432.34934,227.99084 431.81727,225.92189 432.78765,223.39317 C 434.02929,220.15749 433.15489,219.33158 429.83595,220.60519 C 427.24215,221.60051 424.24305,226.40739 423.17129,231.28709 C 422.09952,236.16679 419.81599,240.15929 418.09677,240.15929 C 416.37752,240.15929 415.86072,237.84038 416.94834,235.00616 C 418.68152,230.48954 418.15807,230.54776 412.71061,235.47763 C 406.77071,240.85319 404.39202,252.25233 408.37834,256.23868 C 409.41391,257.27425 414.54747,253.02076 419.78627,246.7865 C 425.02506,240.55224 434.78714,230.38747 441.47979,224.19817 z M 428.71508,206.47129 C 462.50626,181.25025 492.20702,159.34804 494.71677,157.79973 C 498.63647,155.38155 498.422,154.29254 493.19571,150.07687 C 480.06513,139.4853 443.12511,124.3039 415.62183,118.19595 C 363.82282,106.69241 308.88132,113.71869 261.03164,137.96594 C 253.1638,141.95288 243.71496,147.75434 240.03425,150.85805 L 233.342,156.50117 L 299.38448,204.29883 C 335.70783,230.58755 365.84312,252.14853 366.35176,252.21211 C 366.8604,252.27572 394.9239,231.69233 428.71508,206.47129 z M 313.81693,202.79399 C 314.77553,198.97467 314.26263,190.07649 312.6772,183.02025 C 309.52795,169.00389 312.26186,166.55968 321.618,175.02688 C 326.57796,179.51555 327.34417,179.13303 332.28171,169.70318 L 337.60148,159.54329 L 343.25722,178.55649 C 346.36791,189.01376 350.23297,197.5697 351.8463,197.5697 C 353.45959,197.5697 354.77956,198.93866 354.77956,200.61182 C 354.77956,202.28498 351.21074,203.65393 346.8488,203.65393 C 341.11789,203.65393 339.39447,202.41244 340.63559,199.17813 C 341.58023,196.71642 340.58445,189.59368 338.42276,183.34977 L 334.49241,171.99724 L 332.4521,182.19888 C 330.41707,192.37393 330.39474,192.38543 323.87854,186.61928 L 317.34533,180.83808 L 319.11778,189.96442 C 320.09263,194.98391 321.81705,201.48642 322.94981,204.41446 C 324.51531,208.46111 323.45791,209.73816 318.54173,209.73816 C 313.32615,209.73816 312.41148,208.39382 313.81693,202.79399 z M 406.14458,207.45657 C 405.95159,206.2017 405.60935,203.12156 405.38405,200.61182 C 404.81517,194.27443 391.28492,192.6117 391.28492,198.87918 C 391.28492,201.62584 388.70065,203.65393 385.20069,203.65393 C 381.85437,203.65393 379.11647,202.28498 379.11647,200.61182 C 379.11647,198.93866 380.27116,197.5697 381.68246,197.5697 C 383.09376,197.5697 388.9118,190.7276 394.61144,182.36501 C 400.31108,174.00245 405.83002,167.15769 406.87575,167.15444 C 409.20357,167.14726 412.57971,183.21425 412.57971,194.29943 C 412.57971,198.77514 414.22245,204.07983 416.23025,206.08762 C 419.06954,208.92692 418.39352,209.73816 413.18813,209.73816 C 409.50718,209.73816 406.33757,208.71144 406.14458,207.45657 z M 405.25053,183.5027 C 403.68947,179.43469 402.45167,179.10188 399.57644,181.97711 C 396.70119,184.85236 396.86963,186.25453 400.34859,188.40464 C 406.01334,191.90565 407.79237,190.12666 405.25053,183.5027 z M 254.56463,188.76997 C 252.67758,185.244 249.85659,182.35914 248.29572,182.35914 C 246.73487,182.35914 243.41547,178.59452 240.91929,173.99332 C 238.42309,169.39213 236.32594,167.15407 236.25896,169.01989 C 236.19197,170.88571 238.87505,175.89297 242.22138,180.14712 C 245.5677,184.40128 248.3056,189.83355 248.3056,192.21881 C 248.3056,198.25841 251.92423,201.25215 255.22936,197.94702 C 256.88959,196.28678 256.62381,192.61757 254.56463,188.76997 z M 185.18982,140.20107 C 186.56342,134.94841 186.05034,134.85654 177.93934,138.90285 C 167.31299,144.20398 166.96215,145.85378 176.46114,145.85378 C 180.96867,145.85378 184.27086,143.71529 185.18982,140.20107 z M 107.93876,479.72926 C 104.47638,461.38945 103.80131,449.25787 105.60738,437.83276 C 108.26643,421.01182 107.26442,416.14459 101.29424,416.8816 C 92.135867,418.0122 90.115717,416.05123 90.115717,406.03051 C 90.115717,395.74771 90.385587,395.5103 100.00259,397.33222 C 105.44037,398.36243 111.3936,400.37741 113.23198,401.80997 C 116.40095,404.2794 121.63241,455.4716 120.88566,476.70454 C 120.69401,482.15382 118.79911,490.87197 116.67477,496.07815 C 112.87219,505.39724 112.73675,505.1438 107.93876,479.72926 z M 116.03002,466.03619 C 113.43547,448.64312 108.5937,438.40385 108.47789,450.06509 C 108.38817,459.0946 114.00255,480.48622 116.46209,480.48622 C 117.41002,480.48622 117.21556,473.98371 116.03002,466.03619 z M 111.41051,410.51762 C 111.41051,406.05585 109.38243,404.4334 103.80523,404.4334 C 94.211257,404.4334 93.588927,412.63366 103.0447,414.45494 C 106.80932,415.18003 110.23169,415.95972 110.64998,416.18757 C 111.06828,416.41543 111.41051,413.86395 111.41051,410.51762 z M 628.56974,432.74199 C 628.56974,415.63437 627.47236,410.93019 622.48552,406.66031 C 612.76387,398.33636 614.72871,392.26494 627.14415,392.26494 C 640.96715,392.26494 642.18487,395.81898 638.85616,426.4481 C 635.3643,458.57869 628.56974,462.73604 628.56974,432.74199 z M 634.65397,412.03868 C 634.65397,399.84157 633.90777,398.35973 627.80922,398.44591 C 621.47091,398.5355 621.35838,398.84169 626.28816,402.58394 C 629.36988,404.9233 631.61186,410.64764 631.61186,416.17668 C 631.61186,421.43002 632.29633,425.72819 633.13291,425.72819 C 633.96949,425.72819 634.65397,419.56791 634.65397,412.03868 z M 523.53057,131.40374 C 524.75155,125.6299 524.39885,121.51687 522.68276,121.51687 C 521.06658,121.51687 519.15382,117.49413 518.4322,112.57744 C 517.18137,104.05499 517.55549,103.72021 526.45273,105.40024 C 546.3379,109.155 547.93924,115.97849 532.41518,130.80697 L 521.43978,141.29061 L 523.53057,131.40374 z M 537.30635,116.77416 C 537.30635,114.12636 534.29481,112.39053 529.70107,112.39053 C 522.41481,112.39053 522.31911,112.62551 527.41948,117.99219 C 533.24419,124.12101 537.30635,123.62058 537.30635,116.77416 z "
       id="path1964"
       sodipodi:nodetypes="csssssssssssccssssssssssssccscccsssssssssssssssssssssssssssssssssssccccccccsscccccsssccsssssssssccssssssccsssssssscccccssccsssssccscccsssssssccssssssssssscccsccssccssccsssccssccssccsssssssccsssccsssccsssccsssscccssssssssccssssccsssssccssssccsssccsssccsssssscccsssccssssssssssssssssccccssssssssssccsssccsscccccssssssssssssscccscccssssssssscccssssssccsssccssssssssssssssccssccsssssssssssssssssssccssssccsssssssccscccssssccsssccssssccccssssssssssssccscccsssccsssssssccsssssssssssssccssssssssssssssssscccsssccsssssscccsssssssssssccssccssssccssssssccsssssssccssssccssssccsssssccssssssssscccccsssccssssssssssssssssssssssccsssccsssssssssccssssccssccsssssssssssssccsssscccsccsscccssssccccccssccssssssssssccssccssssssccssccsssssssccssccsssccsssccssssccsssccccssc" />
  </g>
</svg>
